<svg width="915" height="1057" viewBox="0 0 915 1057" fill="none" xmlns="http://www.w3.org/2000/svg">
<path d="M400.469 461.071C435.036 481.033 477.662 480.885 512.09 460.685L690.155 356.206C667.133 325.03 637.483 297.962 601.774 277.346C471.836 202.303 308.03 239.093 221.736 357.858L400.469 461.071Z" fill="white"/>
<path d="M424.072 615.267C424.072 575.606 402.899 538.962 368.539 519.154L189.176 415.756C132.768 548.977 183.301 706.387 311.995 780.572C347.579 801.085 385.702 813.23 424.072 817.654V615.267Z" fill="white"/>
<path d="M724.682 412.996L545.363 518.272C511.431 538.192 490.59 574.595 490.59 613.942V817.654C578.907 807.329 661.406 756.811 709.285 673.817C757.041 591.035 759.615 494.568 724.682 412.985V412.996Z" fill="white"/>
<path d="M457.332 0L0 264.003V792.019L457.332 1056.02L914.664 792.019V264.003L457.332 0ZM534.944 946.955C515.714 958.17 491.567 944.3 491.567 922.039V819.021L424.527 818.764L424.135 922.517C424.051 944.672 400.058 958.465 380.87 947.388L111.342 791.801C77.014 771.985 55.8662 735.358 55.8662 695.721V384.894C55.8662 362.353 80.5611 348.523 99.7807 360.3L187.923 414.309L222.951 357.154L132.078 301.468C113.431 290.041 113.787 262.829 132.728 251.894L401.867 96.5162C436.189 76.7013 478.475 76.7008 512.798 96.5149L781.219 251.469C800.293 262.48 800.488 289.943 781.572 301.223L691.099 355.176L725.434 412.745L815.194 359.228C834.42 347.765 858.809 361.618 858.809 384.003V695.484C858.809 735.248 837.527 771.971 803.026 791.741L691.099 855.876L534.944 946.955Z" fill="white"/>
</svg>
